<svg width="50" height="32" viewBox="0 0 50 32" fill="none" xmlns="http://www.w3.org/2000/svg">
<g id="Group 289288">
<path id="Vector" d="M15.6608 12.2565C14.5277 11.7456 13.2738 11.4855 12.0013 11.0861C12.3821 9.03322 13.7568 7.01753 15.7351 5.89358C16.7289 5.32696 17.8156 4.92754 18.8838 4.50025C19.3389 4.32376 19.5339 4.10083 19.4411 3.60852C19.2924 2.7911 19.1438 1.96439 19.051 1.13768C18.9674 0.431727 18.6237 0.190216 17.955 0.338838C16.441 0.682526 14.8899 0.905459 13.4224 1.38848C4.64519 4.25874 -0.909068 12.0242 0.233363 20.9137C1.11573 27.7782 6.5028 31.8002 12.7165 30.9271C17.0726 30.314 20.5092 26.9514 21.2429 22.3999C21.9024 18.3221 19.5711 14.0121 15.6608 12.2565Z" fill="#3081D0"/>
<path id="Vector_2" d="M44.9176 13.0952C43.3758 12.0084 41.6482 11.4417 39.772 11.2653C39.6884 11.1817 39.6141 11.0981 39.5305 11.0145C40.2085 9.86264 40.7844 8.63651 41.5925 7.58687C42.8463 5.95203 44.6947 5.15319 46.608 4.54012C47.2024 4.35435 47.3975 4.07568 47.286 3.48119C47.1374 2.71951 46.9888 1.95782 46.9145 1.18684C46.8402 0.434447 46.478 0.239381 45.7628 0.341558C40.2643 1.13111 35.4809 3.32328 31.9329 7.69834C28.5242 11.9062 27.1867 16.755 28.3105 22.0775C29.5923 28.1524 34.5707 31.6636 40.4872 30.9391C44.6297 30.4282 47.8898 27.5765 48.9022 23.573C49.8867 19.7088 48.2613 15.4545 44.9176 13.0952Z" fill="#3081D0"/>
</g>
</svg>
