<svg width="48" height="48" viewBox="0 0 48 48" fill="none" xmlns="http://www.w3.org/2000/svg">
<path d="M40.8868 11.3316H33.9356C33.3808 10.0654 32.5957 8.91331 31.6203 7.93377C31.8182 7.69362 31.9196 7.38841 31.9047 7.07759C31.8954 6.90407 31.8496 6.73446 31.7703 6.57982C31.6911 6.42517 31.5801 6.28896 31.4447 6.18006C29.2363 4.44379 26.5085 3.49993 23.6993 3.5C20.89 3.50007 18.1623 4.44406 15.954 6.18044C15.8188 6.28943 15.708 6.42562 15.6288 6.58017C15.5496 6.73473 15.5038 6.90421 15.4943 7.07761C15.4796 7.38842 15.581 7.69358 15.7789 7.9337C14.8034 8.91326 14.0183 10.0654 13.4634 11.3316H6.51228C5.94724 11.3322 5.4055 11.5569 5.00592 11.9564C4.60634 12.3559 4.38154 12.8976 4.38086 13.4626V36.8377C4.38154 37.4028 4.60634 37.9445 5.00592 38.344C5.4055 38.7435 5.94724 38.9682 6.51228 38.9688H18.9862L18.3639 41.925H18.1995C17.4522 41.9259 16.7358 42.2232 16.2074 42.7517C15.679 43.2801 15.3818 43.9966 15.381 44.7439C15.381 44.9444 15.4607 45.1367 15.6025 45.2785C15.7443 45.4203 15.9366 45.5 16.1371 45.5H31.262C31.4625 45.5 31.6548 45.4203 31.7966 45.2785C31.9384 45.1367 32.0181 44.9444 32.0181 44.7439C32.0173 43.9966 31.7201 43.2801 31.1917 42.7517C30.6633 42.2232 29.9469 41.9259 29.1996 41.925H29.0352L28.4129 38.9688H40.8868C41.4518 38.9682 41.9936 38.7435 42.3931 38.344C42.7927 37.9445 43.0175 37.4028 43.0182 36.8377V13.4626C43.0175 12.8976 42.7927 12.3559 42.3931 11.9564C41.9936 11.5568 41.4518 11.3322 40.8868 11.3316ZM23.6995 5.01225C26.0629 5.00343 28.3652 5.76216 30.2603 7.17432L30.0196 7.41504C29.9642 7.47042 29.8941 7.53835 29.8206 7.60961C28.0767 6.23305 25.9197 5.4845 23.6979 5.48483C21.4762 5.48517 19.3194 6.23437 17.5759 7.61145L17.1388 7.17432C19.0338 5.7621 21.3362 5.00337 23.6995 5.01225ZM16.8538 8.99491C17.0597 9.13588 17.3034 9.2114 17.553 9.21159C17.8448 9.21124 18.1275 9.11017 18.3534 8.92545C19.8553 7.67994 21.7449 6.99791 23.696 6.9971C25.6471 6.99629 27.5372 7.67676 29.0401 8.92102C29.2491 9.08813 29.5062 9.18362 29.7736 9.19338C30.0411 9.20315 30.3045 9.12667 30.5251 8.97525C31.2176 9.66839 31.8004 10.4629 32.2536 11.3316H15.1455C15.5942 10.4712 16.1701 9.6835 16.8538 8.99491ZM6.51229 12.8438H12.9376C12.6681 13.8052 12.529 14.7984 12.5241 15.7967V18.0343C11.805 18.3736 11.1931 18.9042 10.7556 19.5681C10.318 20.232 10.0716 21.0035 10.0434 21.7981L10.0437 24.7569C10.0366 25.2938 10.1379 25.8266 10.3416 26.3233C10.5453 26.8201 10.8472 27.2706 11.2293 27.6478C12.0938 28.4946 13.2582 28.9651 14.4683 28.9567L14.5244 28.9563C15.0236 28.9657 15.5076 28.7845 15.8778 28.4496C16.248 28.1146 16.4766 27.6511 16.517 27.1535V19.309C16.5204 19.0784 16.4772 18.8496 16.39 18.6361C16.3029 18.4226 16.1735 18.2289 16.0097 18.0666C15.6423 17.7169 15.1546 17.5217 14.6474 17.5213C14.4429 17.5252 14.2388 17.5418 14.0363 17.5711V15.7967C14.0377 14.7941 14.1953 13.7979 14.5036 12.8438H32.8955C33.2037 13.7979 33.3614 14.7941 33.3627 15.7967V17.5711C33.1602 17.5418 32.956 17.5252 32.7513 17.5213C32.499 17.5133 32.2477 17.5576 32.0133 17.6514C31.7789 17.7453 31.5664 17.8866 31.3893 18.0666C31.2265 18.2274 31.0977 18.4193 31.0106 18.6309C30.9235 18.8425 30.8797 19.0695 30.882 19.2983V27.1639C30.9208 27.6298 31.1267 28.066 31.4617 28.3921C31.7966 28.7182 32.2382 28.9122 32.705 28.9385C32.5927 29.1528 32.4241 29.3325 32.2174 29.458C32.0106 29.5836 31.7734 29.6504 31.5315 29.6512H26.9572C26.8153 29.3538 26.5922 29.1025 26.3137 28.9263C26.0353 28.75 25.7127 28.656 25.3831 28.6551H22.016C21.7855 28.6546 21.5572 28.6996 21.3442 28.7874C21.1312 28.8753 20.9376 29.0043 20.7744 29.1671C20.6113 29.3299 20.4819 29.5232 20.3936 29.7361C20.3053 29.9489 20.2599 30.1771 20.2599 30.4075C20.2599 30.638 20.3053 30.8661 20.3936 31.079C20.4819 31.2918 20.6113 31.4852 20.7744 31.648C20.9376 31.8107 21.1312 31.9398 21.3442 32.0276C21.5572 32.1155 21.7855 32.1604 22.016 32.16H25.3831C25.7127 32.159 26.0354 32.065 26.3139 31.8887C26.5924 31.7124 26.8155 31.461 26.9574 31.1635H31.5315C32.211 31.1619 32.8675 30.9167 33.3817 30.4725C33.896 30.0283 34.2339 29.4145 34.3343 28.7424C35.026 28.5322 35.6561 28.1565 36.1698 27.6479C36.5508 27.2721 36.8522 26.8234 37.0559 26.3285C37.2596 25.8336 37.3614 25.3028 37.3553 24.7677L37.3557 21.7875C37.3264 20.9945 37.0794 20.2248 36.6419 19.5628C36.2043 18.9008 35.5931 18.3719 34.875 18.0341V15.7967C34.87 14.7983 34.7309 13.8051 34.4614 12.8438H40.8868C41.0509 12.8439 41.2082 12.9092 41.3243 13.0252C41.4404 13.1412 41.5057 13.2985 41.5059 13.4626V33.3314H5.89313V13.4626C5.89336 13.2985 5.95867 13.1412 6.07475 13.0252C6.19083 12.9092 6.34818 12.844 6.51229 12.8438ZM14.6647 19.0335H14.6702C14.7695 19.0306 14.8659 19.0668 14.9387 19.1343C14.9607 19.1554 14.9779 19.1809 14.9893 19.2092C15.0007 19.2375 15.006 19.2678 15.0048 19.2982V27.1431C14.9595 27.2358 14.8885 27.3135 14.8002 27.3669C14.712 27.4202 14.6102 27.447 14.5071 27.444C14.1002 27.4541 13.6951 27.3828 13.3162 27.2344C12.9372 27.086 12.5917 26.8634 12.3 26.5797C12.0601 26.3435 11.8705 26.0612 11.7427 25.7498C11.6148 25.4383 11.5513 25.1043 11.556 24.7676L11.5556 21.8088C11.617 21.035 11.9744 20.3146 12.5536 19.7976C13.1327 19.2807 13.8889 19.007 14.6647 19.0335ZM32.8924 27.444C32.7907 27.4463 32.6899 27.4204 32.6021 27.3691C32.5142 27.3178 32.4423 27.2431 32.3943 27.1534V19.2876C32.3942 19.2589 32.4 19.2304 32.4114 19.2041C32.4227 19.1777 32.4394 19.154 32.4604 19.1343C32.5332 19.0668 32.6296 19.0306 32.7288 19.0336H32.734C33.5082 19.0065 34.2632 19.2786 34.8421 19.7934C35.4211 20.3082 35.7797 21.0261 35.8434 21.7982L35.8431 24.7784C35.8467 25.1133 35.7827 25.4454 35.6548 25.7549C35.527 26.0645 35.338 26.345 35.0991 26.5797C34.8084 26.865 34.4631 27.0886 34.0839 27.2371C33.7047 27.3856 33.2994 27.4559 32.8924 27.444ZM25.6235 30.4073C25.6234 30.471 25.598 30.5321 25.553 30.5771C25.5079 30.6222 25.4468 30.6476 25.3831 30.6476H22.016C21.9843 30.6478 21.9529 30.6417 21.9236 30.6297C21.8943 30.6177 21.8677 30.6001 21.8453 30.5777C21.8228 30.5554 21.805 30.5289 21.7928 30.4997C21.7807 30.4704 21.7744 30.4391 21.7744 30.4074C21.7744 30.3758 21.7807 30.3445 21.7928 30.3152C21.805 30.286 21.8228 30.2595 21.8453 30.2371C21.8677 30.2148 21.8943 30.1972 21.9236 30.1852C21.9529 30.1732 21.9843 30.1671 22.016 30.1673H25.3831C25.4468 30.1673 25.5078 30.1926 25.5529 30.2376C25.5979 30.2826 25.6233 30.3436 25.6235 30.4073ZM30.2644 43.9878H17.1347C17.2553 43.8176 17.4149 43.6789 17.6001 43.5831C17.7854 43.4873 17.9909 43.4373 18.1995 43.4373H29.1996C29.4081 43.4373 29.6136 43.4873 29.7989 43.5831C29.9842 43.6789 30.1438 43.8176 30.2644 43.9878ZM27.4897 41.9251H19.9093L20.5318 38.9688H26.8673L27.4897 41.9251ZM40.8868 37.4566H6.51229C6.34818 37.4565 6.19083 37.3912 6.07475 37.2752C5.95867 37.1592 5.89336 37.0019 5.89313 36.8378V34.8437H41.5059V36.8378C41.5057 37.0019 41.4404 37.1592 41.3243 37.2752C41.2082 37.3912 41.0509 37.4565 40.8868 37.4566Z" fill="#00BE9C"/>
<path d="M24.7306 35.3926H22.6682C22.4677 35.3926 22.2754 35.4722 22.1336 35.614C21.9918 35.7558 21.9121 35.9482 21.9121 36.1487C21.9121 36.3492 21.9918 36.5416 22.1336 36.6834C22.2754 36.8252 22.4677 36.9048 22.6682 36.9048H24.7306C24.9312 36.9048 25.1235 36.8252 25.2653 36.6834C25.4071 36.5416 25.4868 36.3492 25.4868 36.1487C25.4868 35.9482 25.4071 35.7558 25.2653 35.614C25.1235 35.4722 24.9312 35.3926 24.7306 35.3926Z" fill="#00BE9C"/>
</svg>
