<svg xmlns="http://www.w3.org/2000/svg" version="1.1" xmlns:xlink="http://www.w3.org/1999/xlink" xmlns:svgjs="http://svgjs.com/svgjs" width="512" height="512" x="0" y="0" viewBox="0 0 512 512" style="enable-background:new 0 0 512 512" xml:space="preserve" class=""><g><path fill="#fed035" d="M362.668 320H384v74.668h-21.332zm0 0" data-original="#fed035" class=""></path><g fill="#455d76"><path d="M330.668 213.332c-17.676 0-32-14.324-32-32 0-17.672 14.324-32 32-32 17.672 0 32 14.328 32 32 0 17.676-14.328 32-32 32zm0-42.664c-5.89 0-10.668 4.773-10.668 10.664S324.777 192 330.668 192s10.664-4.777 10.664-10.668-4.773-10.664-10.664-10.664zM416 213.332c-17.672 0-32-14.324-32-32 0-17.672 14.328-32 32-32s32 14.328 32 32c0 17.676-14.328 32-32 32zm0-42.664c-5.89 0-10.668 4.773-10.668 10.664S410.109 192 416 192s10.668-4.777 10.668-10.668-4.777-10.664-10.668-10.664zM362.668 202.668H384V288h-21.332zm0 0" fill="#000000" data-original="#455d76" class="" opacity="1"></path><path d="M416 405.332h-85.332c-5.89 0-10.668-4.773-10.668-10.664V277.332h21.332V384h64V277.332h21.336v117.336c0 5.89-4.777 10.664-10.668 10.664zm0 0" fill="#000000" data-original="#455d76" class="" opacity="1"></path><path d="M373.332 448c-2.828 0-5.539-1.125-7.539-3.125l-42.668-42.668 15.082-15.082 35.125 35.125 35.125-35.125 15.086 15.082-42.668 42.668c-2 2-4.715 3.125-7.543 3.125zM330.668 309.332H416v21.336h-85.332zm0 0" fill="#000000" data-original="#455d76" class="" opacity="1"></path></g><path fill="#fed035" d="M373.332 298.668c-64.8 0-117.332-52.535-117.332-117.336S308.531 64 373.332 64s117.336 52.531 117.336 117.332c-.078 64.77-52.566 117.258-117.336 117.336zm0-213.336c-53.02 0-96 42.98-96 96s42.98 96 96 96 96-42.98 96-96c-.062-52.992-43.008-95.934-96-96zm0 0" data-original="#fed035" class=""></path><path fill="#000000" d="M202.668 426.668h170.664V448H202.668zM160 426.668h21.332V448H160zm0 0" data-original="#455d76" class="" opacity="1"></path><path fill="#fed035" d="M181.332 384h117.336v21.332H181.332zm0 0" data-original="#fed035" class=""></path><path fill="#000000" d="M138.668 384H160v21.332h-21.332zM74.668 106.668h-64V85.332h64c5.89 0 10.664-4.773 10.664-10.664v-64h21.336v64c0 17.672-14.328 32-32 32zm0 0" data-original="#455d76" class="" opacity="1"></path><path fill="#fed035" d="M96 469.332H74.668c-17.676 0-32-14.324-32-32V416H64v21.332C64 443.222 68.777 448 74.668 448H96zm0 0" data-original="#fed035" class=""></path><path fill="#000000" d="M42.668 373.332H64v21.336H42.668zm0 0" data-original="#455d76" class="" opacity="1"></path><path fill="#000000" d="M234.668 224H85.332c-17.672 0-32-14.328-32-32v-21.332c0-17.676 14.328-32 32-32h149.336V160H85.332c-5.89 0-10.664 4.777-10.664 10.668V192c0 5.89 4.773 10.668 10.664 10.668h149.336zm0 0" data-original="#389aff" class="" opacity="1"></path><path fill="#fed035" d="M298.668 330.668H85.332c-17.672 0-32-14.328-32-32v-21.336c0-17.672 14.328-32 32-32h160v21.336h-160c-5.89 0-10.664 4.773-10.664 10.664v21.336c0 5.89 4.773 10.664 10.664 10.664h213.336zm0 0" data-original="#fed035" class=""></path><path fill="#000000" d="M352 512H32c-17.672 0-32-14.328-32-32V96c0-2.828 1.125-5.543 3.125-7.543L88.457 3.125C90.457 1.125 93.172 0 96 0h256c17.672 0 32 14.328 32 32v10.668h-21.332V32c0-5.89-4.777-10.668-10.668-10.668H100.414l-79.082 79.082V480c0 5.89 4.777 10.668 10.668 10.668h320c5.89 0 10.668-4.777 10.668-10.668v-10.668H384V480c0 17.672-14.328 32-32 32zm0 0" data-original="#389aff" class="" opacity="1"></path><path fill="#000000" d="M330.668 192H416v21.332h-85.332zm0 0" data-original="#455d76" class="" opacity="1"></path></g></svg>