<svg width="48" height="48" viewBox="0 0 48 48" fill="none" xmlns="http://www.w3.org/2000/svg">
<path d="M41.5496 12.0051H39.9184C39.2144 12.0051 38.6332 11.6169 38.3638 10.9662C38.0943 10.3159 38.2309 9.62982 38.7287 9.13199L39.8821 7.97863C40.5065 7.35423 40.5065 6.33799 39.8821 5.71359L37.4366 3.26871C37.135 2.96705 36.7326 2.8004 36.3039 2.8004C35.8751 2.8004 35.4733 2.96652 35.1711 3.26818L34.0177 4.42153C33.5199 4.91937 32.8343 5.05596 32.1835 4.78647C31.5328 4.51699 31.1446 3.93583 31.1446 3.23179V1.60064C31.1446 0.717299 30.4263 -0.000976562 29.543 -0.000976562H26.0851C25.2017 -0.000976562 24.4834 0.717299 24.4834 1.60064V3.23179C24.4834 3.93583 24.0953 4.51699 23.4445 4.78647C22.7943 5.05596 22.1082 4.91937 21.6103 4.42153L20.4575 3.26871C20.1559 2.96705 19.7535 2.8004 19.3247 2.8004C18.896 2.8004 18.4941 2.96652 18.1919 3.26818L15.7465 5.71359C15.1221 6.33799 15.1221 7.35423 15.7465 7.97863L16.8999 9.13199C17.3977 9.62982 17.5343 10.3154 17.2648 10.9662C16.9953 11.6169 16.4142 12.0051 15.7101 12.0051H14.079C13.1956 12.0051 12.4774 12.7234 12.4774 13.6067V17.0647C12.4774 17.948 13.1956 18.6663 14.079 18.6663H15.7101C16.4142 18.6663 16.9953 19.0544 17.2648 19.7052C17.5343 20.3554 17.3977 21.041 16.8999 21.5394L15.746 22.6927C15.1216 23.3171 15.1216 24.3334 15.746 24.9578L18.1914 27.4032C18.8158 28.0276 19.832 28.0276 20.4565 27.4032L21.6098 26.2498C22.1076 25.752 22.7932 25.6154 23.444 25.8849C24.0942 26.1544 24.4829 26.7355 24.4829 27.4396V29.0707C24.4829 29.9541 25.2012 30.6723 26.0845 30.6723H29.5425C30.4258 30.6723 31.1441 29.9541 31.1441 29.0707V27.439C31.1441 26.735 31.5328 26.1538 32.183 25.8844C32.8333 25.6154 33.5188 25.7515 34.0172 26.2493L35.1706 27.4032C35.795 28.0276 36.8112 28.0276 37.4356 27.4032L39.881 24.9578C40.5054 24.3334 40.5054 23.3171 39.881 22.6927L38.7276 21.5394C38.2298 21.0415 38.0932 20.356 38.3627 19.7052C38.6322 19.0549 39.2134 18.6663 39.9174 18.6663H41.5491C42.4324 18.6663 43.1507 17.948 43.1507 17.0647V13.6067C43.1512 12.7239 42.4329 12.0051 41.5496 12.0051ZM41.7394 17.0652C41.7394 17.168 41.6524 17.255 41.5496 17.255H39.9179C38.6427 17.255 37.5469 17.987 37.0591 19.1657C36.5707 20.3438 36.8281 21.6364 37.7299 22.5382L38.8832 23.6916C38.956 23.7643 38.956 23.8872 38.8832 23.96L36.4378 26.4054C36.365 26.4782 36.2422 26.4782 36.1694 26.4054L35.016 25.2515C34.1142 24.3497 32.8217 24.0929 31.6435 24.5807C30.4654 25.0691 29.7334 26.1644 29.7334 27.4396V29.0712C29.7334 29.1741 29.6464 29.2611 29.5435 29.2611H26.0856C25.9827 29.2611 25.8957 29.1741 25.8957 29.0712V27.4401C25.8957 26.1644 25.1637 25.0691 23.9856 24.5812C23.5906 24.4178 23.1829 24.3376 22.7816 24.3376C21.9848 24.3376 21.2127 24.6524 20.6131 25.2515L19.4597 26.4049C19.3869 26.4777 19.2641 26.4777 19.1913 26.4049L16.7459 23.9595C16.6731 23.8867 16.6731 23.7638 16.7459 23.691L17.8998 22.5377C18.8016 21.6359 19.0584 20.3433 18.5706 19.1652C18.0828 17.9865 16.9869 17.2545 15.7112 17.2545H14.08C13.9772 17.2545 13.8902 17.1675 13.8902 17.0647V13.6067C13.8902 13.5039 13.9772 13.4169 14.08 13.4169H15.7112C16.9864 13.4169 18.0822 12.6849 18.5706 11.5062C19.0584 10.3281 18.8016 9.03548 17.8998 8.13368L16.7464 6.98032C16.6736 6.90755 16.6736 6.78467 16.7464 6.71189L19.1918 4.26649C19.2393 4.21902 19.2962 4.21217 19.3258 4.21217C19.3553 4.21217 19.4128 4.21902 19.4603 4.26701L20.6136 5.42037C21.5154 6.32217 22.8075 6.57952 23.9861 6.09118C25.1643 5.60337 25.8963 4.50749 25.8963 3.23232V1.60064C25.8963 1.4978 25.9833 1.41079 26.0861 1.41079H29.5441C29.6469 1.41079 29.7339 1.4978 29.7339 1.60064V3.23179C29.7339 4.50749 30.4659 5.60284 31.644 6.09065C32.8227 6.579 34.1148 6.32164 35.0166 5.41984L36.1699 4.26649C36.2174 4.21902 36.2743 4.21164 36.3044 4.21164C36.3339 4.21164 36.3914 4.2185 36.4383 4.26649L38.8837 6.71189C38.9565 6.78467 38.9565 6.90755 38.8837 6.98032L37.7304 8.13368C36.8286 9.03548 36.5718 10.3281 37.0596 11.5062C37.5474 12.6843 38.6433 13.4169 39.9184 13.4169H41.5496C41.6524 13.4169 41.7394 13.5039 41.7394 13.6067V17.0652ZM27.8143 7.50927C23.4988 7.50927 19.9876 11.0205 19.9876 15.3359C19.9876 19.6514 23.4988 23.1626 27.8143 23.1626C32.1297 23.1626 35.641 19.6514 35.641 15.3359C35.641 11.0205 32.1303 7.50927 27.8143 7.50927ZM23.8015 20.3354C24.1232 19.0845 25.1906 18.1352 26.4848 17.9765C26.8967 18.1389 27.3449 18.2291 27.8143 18.2291C28.2836 18.2291 28.7319 18.1389 29.1438 17.9765C30.4379 18.1352 31.5053 19.0845 31.827 20.3354C30.7275 21.2198 29.3321 21.7509 27.8143 21.7509C26.2965 21.7509 24.9016 21.2198 23.8015 20.3354ZM27.8148 16.8173C26.604 16.8173 25.6189 15.848 25.6189 14.6567C25.6189 13.4654 26.604 12.4961 27.8148 12.4961C29.0257 12.4961 30.0108 13.4654 30.0108 14.6567C30.0108 15.848 29.0257 16.8173 27.8148 16.8173ZM32.9203 19.2137C32.4504 18.1959 31.6187 17.38 30.5967 16.9286C31.1125 16.3105 31.4225 15.5189 31.4225 14.6567C31.4225 12.687 29.8041 11.0843 27.8148 11.0843C25.8256 11.0843 24.2071 12.687 24.2071 14.6567C24.2071 15.5189 24.5172 16.3105 25.033 16.9286C24.0109 17.38 23.1793 18.1953 22.7094 19.2137C21.8888 18.1357 21.4004 16.792 21.4004 15.3359C21.4004 11.7989 24.2783 8.92104 27.8153 8.92104C31.3524 8.92104 34.2303 11.7989 34.2303 15.3359C34.2292 16.792 33.7409 18.1357 32.9203 19.2137ZM40.2396 31.668C39.4396 31.4534 38.6058 31.562 37.8923 31.9744L30.9991 35.9539C31.0049 35.6333 30.968 35.3074 30.8809 34.9825C30.3799 33.1141 28.4524 32.0018 26.5845 32.5023L23.723 33.2691C22.6413 33.5586 21.6451 33.4278 20.6753 32.8678L16.8609 30.6655C15.3183 29.7748 13.7794 30.3522 11.9975 31.0209C11.0028 31.3943 9.89221 31.8109 8.58592 32.0635L8.51947 31.8146C8.43457 31.4982 8.23153 31.2335 7.94675 31.0689C7.66197 30.9049 7.33131 30.8606 7.01489 30.9455L4.91069 31.5093C4.25623 31.6849 3.8665 32.3599 4.04212 33.0139L7.81333 47.0883C7.96046 47.6362 8.45777 47.999 9.00043 47.999C9.10538 47.999 9.21191 47.9853 9.31791 47.9568L11.4221 47.3931C11.7385 47.3082 12.0033 47.1051 12.1678 46.8204C12.3271 46.5445 12.3719 46.225 12.297 45.9175C15.3615 45.2451 17.2912 45.7946 19.8932 46.5366C20.3663 46.6716 20.8557 46.8114 21.3783 46.9511C21.8329 47.073 22.2811 47.1336 22.722 47.1336C23.5779 47.1336 24.4064 46.9047 25.197 46.448L40.9858 37.3319C41.6994 36.9201 42.2104 36.253 42.4245 35.4524C42.6386 34.6524 42.53 33.8186 42.1181 33.1051C41.7073 32.3937 41.0402 31.8826 40.2396 31.668ZM9.12964 46.5472L5.45335 32.8266L7.20369 32.3578L10.88 46.0783L9.12964 46.5472ZM41.0618 35.0885C40.9452 35.5241 40.6678 35.8875 40.2807 36.1106L24.4924 45.2266C23.618 45.7313 22.7194 45.8495 21.7448 45.5884C21.2327 45.4513 20.7491 45.3131 20.2814 45.1797C17.5623 44.4045 15.3795 43.7822 11.9337 44.5527L8.9535 33.4299C10.3262 33.1557 11.4696 32.7275 12.4948 32.3425C14.2667 31.6775 15.2339 31.3553 16.1563 31.8874L19.9707 34.0897C21.2628 34.8359 22.6482 35.0179 24.0895 34.6318L26.951 33.865C28.0664 33.566 29.2192 34.231 29.5182 35.3475C29.677 35.9392 29.5641 36.5409 29.2572 37.0203C29.2387 37.044 29.2224 37.0688 29.2071 37.0946C28.9344 37.4833 28.5294 37.7823 28.0358 37.9147L23.8516 39.0359C23.146 39.2247 22.4568 39.2315 21.8028 39.0554C21.4273 38.9541 21.0392 39.1767 20.9374 39.5532C20.8356 39.9298 21.0587 40.3169 21.4352 40.4186C21.8724 40.5368 22.3186 40.5953 22.7711 40.5953C23.2473 40.5953 23.7304 40.5299 24.2171 40.3996L28.4013 39.2785C29.1928 39.0665 29.8484 38.5976 30.3035 37.9859L38.599 33.1963C38.9855 32.9727 39.4391 32.9142 39.8747 33.0313C40.3103 33.1483 40.6736 33.4257 40.8967 33.8123C41.1198 34.1999 41.1789 34.6529 41.0618 35.0885Z" fill="#2C97DF"/>
</svg>
