<svg width="1440" height="576" viewBox="0 0 1440 576" fill="none" xmlns="http://www.w3.org/2000/svg">
<g clip-path="url(#clip0_750_22818)">
<rect width="1440" height="576" fill="url(#paint0_linear_750_22818)"/>
<g opacity="0.4">
<mask id="mask0_750_22818" style="mask-type:alpha" maskUnits="userSpaceOnUse" x="932" y="-56" width="514" height="298">
<rect width="326" height="326" transform="matrix(-0.995809 -0.0914553 0.577107 -0.816668 1257.56 241.024)" fill="#D9D9D9"/>
</mask>
<g mask="url(#mask0_750_22818)">
<rect width="326" height="163" transform="matrix(-0.577107 0.816668 -0.418702 -0.908124 1189.32 93)" fill="url(#paint1_linear_750_22818)"/>
<rect width="326" height="163" transform="matrix(-0.995809 -0.0914553 -0.418702 -0.908124 1513.95 122.814)" fill="url(#paint2_linear_750_22818)"/>
<rect width="326" height="326" transform="matrix(-0.995809 -0.0914553 0.577107 -0.816668 1325.81 389.048)" fill="url(#paint3_linear_750_22818)"/>
</g>
</g>
<g opacity="0.4">
<mask id="mask1_750_22818" style="mask-type:alpha" maskUnits="userSpaceOnUse" x="364" y="400" width="355" height="244">
<rect width="247.688" height="247.688" transform="matrix(0.428817 0.903391 -0.996768 -0.0803289 611.833 420.224)" fill="#D9D9D9"/>
</mask>
<g mask="url(#mask1_750_22818)">
<rect width="247.688" height="123.844" transform="matrix(0.996768 0.0803289 -0.567951 0.823062 541.495 522.156)" fill="url(#paint4_linear_750_22818)"/>
<rect width="247.688" height="123.844" transform="matrix(0.428817 0.903391 -0.567951 0.823062 435.282 298.396)" fill="url(#paint5_linear_750_22818)"/>
<rect width="247.688" height="247.688" transform="matrix(0.428817 0.903391 -0.996768 -0.0803289 682.17 318.292)" fill="url(#paint6_linear_750_22818)"/>
</g>
</g>
</g>
<defs>
<linearGradient id="paint0_linear_750_22818" x1="720" y1="0" x2="720" y2="576" gradientUnits="userSpaceOnUse">
<stop stop-color="#5534A5"/>
<stop offset="1" stop-color="#010B48"/>
</linearGradient>
<linearGradient id="paint1_linear_750_22818" x1="325.873" y1="163.04" x2="178.989" y2="-100.02" gradientUnits="userSpaceOnUse">
<stop stop-color="#E5D5FF"/>
<stop offset="1" stop-color="#BDCBFD"/>
</linearGradient>
<linearGradient id="paint2_linear_750_22818" x1="0" y1="0" x2="342.686" y2="111.898" gradientUnits="userSpaceOnUse">
<stop stop-color="#93E3FC"/>
<stop offset="1" stop-color="#93AAFC"/>
</linearGradient>
<linearGradient id="paint3_linear_750_22818" x1="-9.98563e-05" y1="-0.298447" x2="278.25" y2="-36.8019" gradientUnits="userSpaceOnUse">
<stop stop-color="#5844D7"/>
<stop offset="1" stop-color="#6580E1"/>
</linearGradient>
<linearGradient id="paint4_linear_750_22818" x1="247.592" y1="123.875" x2="135.992" y2="-75.9934" gradientUnits="userSpaceOnUse">
<stop stop-color="#E5D5FF"/>
<stop offset="1" stop-color="#BDCBFD"/>
</linearGradient>
<linearGradient id="paint5_linear_750_22818" x1="0" y1="0" x2="260.367" y2="85.0177" gradientUnits="userSpaceOnUse">
<stop stop-color="#93E3FC"/>
<stop offset="1" stop-color="#93AAFC"/>
</linearGradient>
<linearGradient id="paint6_linear_750_22818" x1="-7.58689e-05" y1="-0.226755" x2="211.409" y2="-27.9614" gradientUnits="userSpaceOnUse">
<stop stop-color="#5844D7"/>
<stop offset="1" stop-color="#6580E1"/>
</linearGradient>
<clipPath id="clip0_750_22818">
<rect width="1440" height="576" fill="white"/>
</clipPath>
</defs>
</svg>
