<svg width="48" height="48" viewBox="0 0 48 48" fill="none" xmlns="http://www.w3.org/2000/svg">
<path d="M23.4255 18.9116C25.7924 18.9116 27.7182 16.9858 27.7182 14.6189C27.7182 12.2495 25.7924 10.3223 23.4255 10.3223C21.0586 10.3223 19.1328 12.2495 19.1328 14.6189C19.1328 16.9858 21.0586 18.9116 23.4255 18.9116ZM23.4255 11.838C24.9565 11.838 26.2024 13.0854 26.2024 14.6189C26.2024 16.1499 24.9565 17.3958 23.4255 17.3958C21.8944 17.3958 20.6486 16.1499 20.6486 14.6189C20.6486 13.0854 21.8944 11.838 23.4255 11.838Z" fill="#50D78A"/>
<path d="M16.6678 18.3856L16.1398 19.1469C15.7841 19.6601 15.8463 20.3528 16.2879 20.7944L17.25 21.7571C17.6911 22.1992 18.3844 22.2613 18.8965 21.9056L19.6549 21.3806C20.1819 21.6762 20.736 21.9056 21.3103 22.0664L21.4731 22.9689C21.5832 23.5842 22.1175 24.0312 22.7432 24.0312H24.1074C24.7321 24.0312 25.266 23.5852 25.3775 22.9694L25.5403 22.0635C26.1137 21.9007 26.6668 21.6717 27.1932 21.3791L27.9536 21.9056C28.4667 22.2604 29.159 22.1977 29.6001 21.7571L30.5637 20.7939C31.0048 20.3513 31.066 19.6581 30.7103 19.1474L30.1823 18.3856C30.4794 17.8601 30.7103 17.3055 30.8721 16.7282L31.78 16.5654C32.3958 16.4554 32.8428 15.921 32.8428 15.2954V13.936C32.8428 13.3119 32.3972 12.7785 31.7844 12.667L30.8696 12.4997C30.7043 11.9194 30.4744 11.3668 30.1818 10.8483L30.7098 10.0864C31.066 9.57426 31.0043 8.88102 30.5627 8.43843L29.5996 7.4748C29.158 7.03566 28.4667 6.97251 27.9536 7.32727L27.1932 7.85374C26.6668 7.56115 26.1137 7.3322 25.5403 7.16938L25.377 6.26298C25.266 5.64819 24.7321 5.20215 24.1074 5.20215H22.7432C22.1175 5.20215 21.5832 5.64869 21.4731 6.26348L21.3103 7.16642C20.736 7.32727 20.1819 7.55671 19.6549 7.85226L18.8975 7.32776C18.3844 6.97251 17.6921 7.03468 17.25 7.47579L16.2879 8.43843C15.8468 8.87954 15.7841 9.57229 16.1398 10.0859L16.6683 10.8483C16.3757 11.3668 16.1458 11.9194 15.9805 12.4997L15.0672 12.667C14.4534 12.778 14.0078 13.3119 14.0078 13.936V15.2954C14.0078 15.921 14.4548 16.4554 15.0701 16.5654L15.978 16.7282C16.1398 17.3055 16.3708 17.8601 16.6678 18.3856ZM15.5236 14.124L16.7334 13.903C17.0349 13.8477 17.2737 13.6168 17.3383 13.3168C17.5002 12.5648 17.7918 11.8652 18.2048 11.238C18.375 10.9795 18.371 10.6435 18.1944 10.3894L17.4928 9.3769L18.1885 8.6807L19.1955 9.37739C19.4482 9.55255 19.7822 9.5565 20.0398 9.38973C20.6851 8.97033 21.3858 8.6802 22.1224 8.52774C22.4254 8.46508 22.6598 8.22478 22.715 7.91986L22.9316 6.71791H23.919L24.1351 7.91986C24.1898 8.22281 24.4217 8.46261 24.7227 8.52675C25.4623 8.68514 26.166 8.97625 26.8148 9.39219C27.0728 9.55699 27.4044 9.55255 27.6551 9.37739L28.6616 8.6807L29.3578 9.3769L28.6557 10.3894C28.4791 10.6435 28.4751 10.9795 28.6453 11.238C29.0583 11.8652 29.3499 12.5648 29.5118 13.3168C29.5764 13.6168 29.8152 13.8477 30.1167 13.903L31.327 14.124V15.1069L30.1192 15.3235C29.8142 15.3783 29.5734 15.6126 29.5108 15.9161C29.3573 16.6562 29.0662 17.3558 28.6453 17.9953C28.4751 18.2539 28.4791 18.5899 28.6557 18.844L29.3573 19.8565L28.6616 20.5522L27.6551 19.8555C27.4044 19.6823 27.0728 19.6769 26.8148 19.8407C26.166 20.2566 25.4623 20.5477 24.7227 20.7061C24.4217 20.7703 24.1898 21.01 24.1351 21.313L23.919 22.5154H22.9316L22.715 21.313C22.6598 21.0081 22.4254 20.7678 22.1224 20.7051C21.3858 20.5527 20.6851 20.2625 20.0398 19.8431C19.7822 19.6759 19.4482 19.6803 19.1955 19.8555L18.1885 20.5522L17.4928 19.856L18.1944 18.844C18.371 18.5899 18.375 18.2539 18.2048 17.9953C17.7839 17.3558 17.4928 16.6562 17.3393 15.9161C17.2767 15.6126 17.0359 15.3783 16.7309 15.3235L15.5236 15.1069V14.124Z" fill="#50D78A"/>
<path d="M14.4859 47.8805C14.7045 48.0201 14.9798 48.0389 15.2127 47.9289L18.9676 46.1871L22.7224 47.9289C22.8236 47.9762 22.9326 47.9994 23.0412 47.9994C23.1833 47.9994 23.3254 47.9595 23.4492 47.8805C23.6673 47.7409 23.7991 47.5001 23.7991 47.2415V43.3318H35.2102C37.8312 43.3318 39.9632 41.0107 39.9632 38.1583C39.9632 35.3059 37.8312 32.9849 35.2102 32.9849H30.5213V28.6868H33.0811C33.8217 28.6868 34.5214 28.3276 34.9531 27.7252C35.3843 27.1237 35.4998 26.3456 35.262 25.6449L34.8845 24.481L35.7805 21.8254H36.9879C37.5751 21.8254 38.1193 21.5329 38.444 21.0434C38.7514 20.5791 38.8185 20.0018 38.6295 19.4822L37.622 14.2116C37.6032 10.3581 36.085 6.75667 33.3431 4.06364C30.6057 1.37553 26.9658 -0.0667063 23.1527 0.00237116C19.426 0.0699684 15.9074 1.64148 13.246 4.42827C10.5909 7.20815 9.12797 10.9507 9.23257 14.6966C9.30757 17.3838 10.1217 19.9776 11.5861 22.1975C13.2775 24.7612 14.1716 27.9215 14.1716 31.3364V32.9849H8.75791C8.50824 32.9849 8.27437 33.1078 8.13325 33.3135C7.99164 33.5193 7.96105 33.7818 8.05036 34.0147C9.10725 36.7645 9.10725 39.5522 8.05036 42.302C7.96105 42.5349 7.99164 42.7974 8.13325 43.0031C8.27437 43.2089 8.50824 43.3318 8.75791 43.3318H14.1361V47.2415C14.1361 47.5001 14.2678 47.7409 14.4859 47.8805ZM22.2833 46.0544L19.2863 44.6645C19.1852 44.6176 19.0766 44.5939 18.9676 44.5939C18.8585 44.5939 18.75 44.6176 18.6488 44.6645L15.6518 46.0544V38.9162H22.2833V46.0544ZM12.8512 21.3626C11.5422 19.3786 10.8149 17.0591 10.7473 14.6542C10.6546 11.3104 11.9646 7.96454 14.3423 5.47529C16.7221 2.98356 19.8606 1.57783 23.1803 1.51813C26.5913 1.44807 29.8364 2.74426 32.2808 5.14519C34.7478 7.56784 36.1062 10.8135 36.1062 14.2842C36.1062 14.332 36.1106 14.3794 36.1195 14.4263L37.1537 19.835C37.1641 19.8873 37.1794 19.9386 37.2006 19.988C37.2425 20.0877 37.206 20.1676 37.1804 20.2061C37.1547 20.245 37.0955 20.3097 36.9879 20.3097H35.2363C34.9112 20.3097 34.622 20.5174 34.5184 20.8253L33.4482 23.9974C33.3372 24.3275 33.3377 24.6907 33.4492 25.0203L33.8261 26.1319C33.909 26.3747 33.8706 26.6337 33.7211 26.8424C33.5711 27.0512 33.3382 27.1711 33.0811 27.1711H29.7634C29.345 27.1711 29.0055 27.5105 29.0055 27.9289V32.9849H15.6874V31.3364C15.6874 27.624 14.7065 24.1751 12.8512 21.3626ZM14.9295 34.5007H29.7634H35.2102C36.9953 34.5007 38.4474 36.1413 38.4474 38.1583C38.4474 40.1754 36.9953 41.816 35.2102 41.816H23.7991V38.9162H28.6394C29.0578 38.9162 29.3973 38.5768 29.3973 38.1583C29.3973 37.7399 29.0578 37.4005 28.6394 37.4005H23.0412H14.894H10.3337C10.274 36.4323 10.105 35.4649 9.81677 34.5007H14.9295ZM9.81677 41.816C10.105 40.8518 10.274 39.8844 10.3337 38.9162H14.1361V41.816H9.81677Z" fill="#50D78A"/>
</svg>
