<svg width="48" height="48" viewBox="0 0 48 48" fill="none" xmlns="http://www.w3.org/2000/svg">
<path d="M13.5403 4.5653C13.5403 4.24717 13.7979 3.9901 14.1157 3.9901C14.4334 3.9901 14.6911 4.24717 14.6911 4.5653C14.6911 5.21821 15.2224 5.74994 15.8758 5.74994H24.1566C24.8161 5.74994 25.3524 5.21831 25.3524 4.5653C25.3524 4.24717 25.6101 3.9901 25.9278 3.9901C26.2455 3.9901 26.5032 4.24717 26.5032 4.5653C26.5032 5.85287 25.4505 6.90051 24.1566 6.90051H15.8758C14.5879 6.90051 13.5403 5.85278 13.5403 4.5653ZM20.7834 43.8149H19.2491C18.9314 43.8149 18.6737 44.0722 18.6737 44.3901C18.6737 44.708 18.9314 44.9655 19.2491 44.9655H20.7834C21.1012 44.9655 21.3588 44.708 21.3588 44.3901C21.3588 44.0722 21.1012 43.8149 20.7834 43.8149ZM39.734 26.6588C39.5237 26.8549 39.4213 27.0938 39.4213 27.3884V29.3286C39.4213 30.2941 38.8044 31.1167 37.9434 31.433V35.4325C37.9434 36.4716 37.0982 37.3163 36.0592 37.3163H35.7044C35.7149 37.9408 35.479 38.5567 35.0439 39.0214V43.8148C35.0308 46.124 32.9961 48 30.5085 48H9.5242C7.02941 48 5 46.1229 5 43.8148V5.18547C5 2.89043 7.02837 1.01261 9.52129 1H30.5085C32.9975 1.0127 35.0309 2.88883 35.0439 5.18236V10.4229C38.3179 11.0441 41.0887 13.3598 42.2204 16.5809C43.4636 20.1432 42.4875 24.0983 39.734 26.6588ZM33.893 43.8118V39.7051C33.6911 39.7585 33.485 39.7924 33.2781 39.7924C33.0748 39.7924 32.8729 39.7599 32.6747 39.7084V41.3666C32.6747 41.6845 32.417 41.942 32.0992 41.942H7.93327C7.61561 41.942 7.35798 41.6845 7.35798 41.3666V8.67154C7.35798 8.35379 7.61561 8.09635 7.93327 8.09635H32.0992C32.417 8.09635 32.6747 8.35379 32.6747 8.67154V10.2752C32.8767 10.2619 33.0793 10.2511 33.2838 10.2511C33.4882 10.2511 33.6909 10.2619 33.8931 10.2752V5.18547C33.8837 3.52321 32.364 2.16017 30.5056 2.15039H9.5242C7.66529 2.16017 6.15086 3.5218 6.15086 5.18547V43.8149C6.15086 45.4882 7.66416 46.8496 9.5242 46.8496H30.5085C32.3653 46.8496 33.8836 45.4866 33.893 43.8118ZM24.3473 16.5808C25.479 13.3594 28.2498 11.0441 31.5239 10.423V9.24683H8.50875V40.7915H31.5239V39.0363C31.0773 38.5699 30.839 37.9523 30.8524 37.3165H30.5085C29.4695 37.3165 28.6244 36.4717 28.6244 35.4327V31.4331C27.7633 31.1169 27.1464 30.2942 27.1464 29.3287V27.3886C27.1464 27.094 27.044 26.8551 26.8335 26.6588C24.0712 24.0906 23.0952 20.1343 24.3473 16.5808ZM31.1853 21.7811C31.1493 21.1861 30.6198 20.6959 29.993 20.6959C29.9746 20.6959 29.9559 20.6969 29.937 20.6976C29.2883 20.7277 28.7852 21.2834 28.8154 21.935C28.8458 22.5826 29.402 23.0959 30.0485 23.0681L31.1853 23.0678V21.7811ZM32.3361 30.4233H34.2316V24.2181H32.3354L32.3361 30.4233ZM29.7751 31.5738V33.3002H36.7924V31.5738H29.7751ZM34.5536 37.3164H32.0058C31.9903 37.73 32.1745 38.1317 32.5209 38.3886C32.9737 38.7245 33.5824 38.7245 34.0358 38.3886C34.381 38.1326 34.5679 37.7248 34.5536 37.3164ZM36.7925 35.4326V34.4508H29.7751V35.4326C29.7751 35.8367 30.1039 36.166 30.5084 36.166H36.0591C36.4637 36.166 36.7925 35.8366 36.7925 35.4326ZM41.1344 16.9616C39.9662 13.6365 36.8111 11.4016 33.2837 11.4016C29.7562 11.4016 26.6011 13.6365 25.4327 16.9629C24.3328 20.0847 25.1903 23.5595 27.6173 25.8163C28.0622 26.2307 28.2973 26.7744 28.2973 27.3885V29.3286C28.2973 29.9325 28.7932 30.4234 29.403 30.4234H31.1853V24.2182H30.0685C30.0418 24.2194 30.015 24.2197 29.9886 24.2197C28.7669 24.2197 27.7247 23.2356 27.666 21.9893C27.6062 20.703 28.601 19.6082 29.8834 19.548C31.1676 19.5021 32.2605 20.4759 32.3351 21.7472V23.0678H34.2315V21.7812C34.3075 20.4759 35.4136 19.493 36.6836 19.548C37.9667 19.6088 38.9613 20.7039 38.9015 21.9889C38.8415 23.2624 37.7547 24.2675 36.4791 24.2179L35.3815 24.2182L35.3823 30.4234H37.1647C37.7744 30.4234 38.2703 29.9325 38.2703 29.3286V27.3885C38.2703 26.7744 38.5053 26.2307 38.9501 25.8169C41.3693 23.5672 42.2266 20.0911 41.1344 16.9616ZM36.4991 23.0677C37.168 23.0748 37.7214 22.5819 37.752 21.9345C37.7822 21.2832 37.2789 20.7282 36.6297 20.6975C35.9752 20.6509 35.4194 21.1682 35.3812 21.8151V23.0678H36.4991V23.0677Z" fill="#F1C50E"/>
</svg>
