<svg width="48" height="48" viewBox="0 0 48 48" fill="none" xmlns="http://www.w3.org/2000/svg">
<path d="M44.8585 34.936H3.82075C3.60308 34.936 3.39431 34.8495 3.24039 34.6956C3.08647 34.5417 3 34.3329 3 34.1152V4.82075C3 4.60307 3.08647 4.39431 3.24039 4.24039C3.39431 4.08647 3.60308 4 3.82075 4H44.8585C45.0761 4 45.2849 4.08647 45.4388 4.24039C45.5927 4.39431 45.6792 4.60307 45.6792 4.82075V34.1152C45.6792 34.3329 45.5927 34.5417 45.4388 34.6956C45.2849 34.8495 45.0761 34.936 44.8585 34.936ZM4.64151 33.2945H44.0377V5.64149H4.64151V33.2945Z" fill="#E74B3C"/>
<path d="M18.8559 39.5547C18.6382 39.5547 18.4295 39.4683 18.2756 39.3144C18.1216 39.1604 18.0352 38.9517 18.0352 38.734V34.1137C18.0352 33.896 18.1216 33.6873 18.2756 33.5334C18.4295 33.3794 18.6382 33.293 18.8559 33.293C19.0736 33.293 19.2824 33.3794 19.4363 33.5334C19.5902 33.6873 19.6767 33.896 19.6767 34.1137V38.734C19.6767 38.9517 19.5902 39.1604 19.4363 39.3144C19.2824 39.4683 19.0736 39.5547 18.8559 39.5547Z" fill="#E74B3C"/>
<path d="M29.8227 39.5547C29.605 39.5547 29.3963 39.4683 29.2423 39.3144C29.0884 39.1604 29.002 38.9517 29.002 38.734V34.1137C29.002 33.896 29.0884 33.6873 29.2423 33.5334C29.3963 33.3794 29.605 33.293 29.8227 33.293C30.0404 33.293 30.2491 33.3794 30.4031 33.5334C30.557 33.6873 30.6435 33.896 30.6435 34.1137V38.734C30.6435 38.9517 30.557 39.1604 30.4031 39.3144C30.2491 39.4683 30.0404 39.5547 29.8227 39.5547Z" fill="#E74B3C"/>
<path d="M35.9016 44.1306H12.7758C12.5582 44.1306 12.3494 44.0441 12.1955 43.8902C12.0416 43.7363 11.9551 43.5275 11.9551 43.3099V42.9533C11.9566 41.6178 12.4878 40.3374 13.4321 39.3931C14.3765 38.4487 15.6569 37.9175 16.9925 37.916H31.685C33.0205 37.9175 34.3009 38.4487 35.2453 39.3931C36.1897 40.3374 36.7209 41.6178 36.7224 42.9533V43.3099C36.7224 43.4176 36.7011 43.5244 36.6599 43.6239C36.6186 43.7235 36.5582 43.814 36.482 43.8902C36.4058 43.9664 36.3153 44.0269 36.2157 44.0681C36.1161 44.1094 36.0094 44.1306 35.9016 44.1306ZM13.6284 42.4891H35.049C34.9359 41.677 34.5332 40.9332 33.915 40.3945C33.2969 39.8558 32.5049 39.5586 31.685 39.5575H16.9925C16.1725 39.5586 15.3806 39.8558 14.7624 40.3945C14.1443 40.9332 13.7415 41.677 13.6284 42.4891Z" fill="#E74B3C"/>
<path d="M13.7238 22.9104C13.5797 22.9106 13.4381 22.8726 13.3134 22.8002L8.77158 20.1779C8.64684 20.1058 8.54326 20.0022 8.47125 19.8775C8.39924 19.7527 8.36133 19.6112 8.36133 19.4672C8.36133 19.3231 8.39924 19.1816 8.47125 19.0569C8.54326 18.9321 8.64684 18.8285 8.77158 18.7564L13.3134 16.1336C13.4068 16.0782 13.5103 16.0418 13.6179 16.0266C13.7255 16.0114 13.835 16.0178 13.9401 16.0452C14.0452 16.0727 14.1438 16.1207 14.2302 16.1866C14.3166 16.2525 14.389 16.3348 14.4434 16.4289C14.4977 16.523 14.5328 16.6269 14.5466 16.7346C14.5605 16.8424 14.5528 16.9518 14.524 17.0566C14.4953 17.1613 14.446 17.2593 14.3791 17.3449C14.3122 17.4305 14.2289 17.5019 14.1342 17.5551L10.8235 19.4669L14.1342 21.3787C14.2907 21.469 14.4131 21.6085 14.4823 21.7754C14.5515 21.9424 14.5637 22.1275 14.5169 22.3021C14.4701 22.4767 14.3671 22.6309 14.2237 22.7409C14.0802 22.8509 13.9045 22.9105 13.7238 22.9104Z" fill="#E74B3C"/>
<path d="M25.2273 22.9111C25.0466 22.9111 24.8709 22.8515 24.7275 22.7415C24.5841 22.6316 24.481 22.4773 24.4342 22.3027C24.3874 22.1281 24.3996 21.943 24.4688 21.7761C24.538 21.6091 24.6604 21.4696 24.8169 21.3793L28.1282 19.4675L24.8169 17.5557C24.6313 17.4454 24.4966 17.2664 24.442 17.0575C24.3874 16.8486 24.4173 16.6266 24.5253 16.4396C24.6333 16.2527 24.8106 16.1157 25.0188 16.0586C25.227 16.0014 25.4494 16.0286 25.6377 16.1343L30.1801 18.7571C30.3048 18.8291 30.4084 18.9327 30.4804 19.0575C30.5524 19.1822 30.5903 19.3237 30.5903 19.4678C30.5903 19.6118 30.5524 19.7533 30.4804 19.8781C30.4084 20.0028 30.3048 20.1064 30.1801 20.1785L25.6377 22.8008C25.5131 22.8732 25.3715 22.9113 25.2273 22.9111Z" fill="#E74B3C"/>
<path d="M17.8995 25.1192C17.7696 25.1193 17.6416 25.0886 17.526 25.0296C17.4103 24.9706 17.3103 24.885 17.2342 24.7799C17.158 24.6748 17.1079 24.553 17.0879 24.4248C17.0679 24.2965 17.0787 24.1653 17.1192 24.042L20.2694 14.3838C20.3025 14.281 20.3556 14.1856 20.4256 14.1033C20.4957 14.021 20.5813 13.9533 20.6775 13.9042C20.7738 13.8551 20.8788 13.8254 20.9866 13.817C21.0943 13.8085 21.2027 13.8214 21.3054 13.855C21.4081 13.8885 21.5032 13.942 21.5853 14.0124C21.6673 14.0828 21.7346 14.1687 21.7833 14.2652C21.832 14.3616 21.8612 14.4668 21.8692 14.5745C21.8772 14.6823 21.8638 14.7906 21.8298 14.8932L18.6797 24.5529C18.626 24.7175 18.5216 24.861 18.3815 24.9627C18.2413 25.0644 18.0726 25.1192 17.8995 25.1192Z" fill="#E74B3C"/>
<path d="M36.7168 32.0374C36.5806 32.0374 36.4466 32.0035 36.3267 31.9387C36.2069 31.874 36.1051 31.7804 36.0305 31.6665L33.2491 27.4238C33.1619 27.2899 33.1154 27.1336 33.1152 26.9739V10.5C33.1152 9.54479 33.4947 8.62872 34.1701 7.9533C34.8455 7.27788 35.7616 6.89844 36.7168 6.89844C37.672 6.89844 38.5881 7.27788 39.2635 7.9533C39.9389 8.62872 40.3184 9.54479 40.3184 10.5V26.9739C40.3183 27.1336 40.2717 27.2899 40.1845 27.4238L37.4032 31.6665C37.3285 31.7804 37.2267 31.874 37.1069 31.9387C36.987 32.0035 36.853 32.0374 36.7168 32.0374ZM34.7567 26.7287L36.7168 29.7193L38.6769 26.7287V10.5C38.6769 9.98014 38.4704 9.48159 38.1028 9.11401C37.7352 8.74643 37.2366 8.53993 36.7168 8.53993C36.197 8.53993 35.6984 8.74643 35.3308 9.11401C34.9632 9.48159 34.7567 9.98014 34.7567 10.5V26.7287Z" fill="#E74B3C"/>
<path d="M39.4976 27.7968H33.936C33.7183 27.7968 33.5095 27.7103 33.3556 27.5564C33.2017 27.4025 33.1152 27.1937 33.1152 26.976C33.1152 26.7583 33.2017 26.5496 33.3556 26.3957C33.5095 26.2417 33.7183 26.1553 33.936 26.1553H39.4976C39.7153 26.1553 39.9241 26.2417 40.078 26.3957C40.2319 26.5496 40.3184 26.7583 40.3184 26.976C40.3184 27.1937 40.2319 27.4025 40.078 27.5564C39.9241 27.7103 39.7153 27.7968 39.4976 27.7968Z" fill="#E74B3C"/>
<path d="M39.4962 11.5878H33.934C33.7164 11.5878 33.5076 11.5013 33.3537 11.3474C33.1998 11.1935 33.1133 10.9847 33.1133 10.767C33.1133 10.5494 33.1998 10.3406 33.3537 10.1867C33.5076 10.0328 33.7164 9.94629 33.934 9.94629H39.4962C39.7139 9.94629 39.9226 10.0328 40.0765 10.1867C40.2305 10.3406 40.3169 10.5494 40.3169 10.767C40.3169 10.9847 40.2305 11.1935 40.0765 11.3474C39.9226 11.5013 39.7139 11.5878 39.4962 11.5878Z" fill="#E74B3C"/>
</svg>
